<mxfile host="app.diagrams.net" modified="2024-05-06T12:28:21.089Z" agent="Mozilla/5.0 (Windows NT 10.0; Win64; x64) AppleWebKit/537.36 (KHTML, like Gecko) Chrome/124.0.0.0 Safari/537.36" etag="o-V3G-9-q0LrkR91JP7j" version="24.3.1" type="google">
  <diagram name="Halaman-1" id="r-9_cJv1S6ayx2242sax">
    <mxGraphModel grid="1" page="1" gridSize="10" guides="1" tooltips="1" connect="1" arrows="1" fold="1" pageScale="1" pageWidth="827" pageHeight="1169" math="0" shadow="0">
      <root>
        <mxCell id="0" />
        <mxCell id="1" parent="0" />
        <mxCell id="cg4IfCzOI3apfOPDThto-6" value="" style="ellipse;html=1;shape=startState;fillColor=#000000;strokeColor=#ff0000;" vertex="1" parent="1">
          <mxGeometry x="140" y="170" width="30" height="30" as="geometry" />
        </mxCell>
        <mxCell id="cg4IfCzOI3apfOPDThto-7" value="" style="edgeStyle=orthogonalEdgeStyle;html=1;verticalAlign=bottom;endArrow=open;endSize=8;strokeColor=#ff0000;rounded=0;" edge="1" parent="1" source="cg4IfCzOI3apfOPDThto-6" target="cg4IfCzOI3apfOPDThto-11">
          <mxGeometry relative="1" as="geometry">
            <mxPoint x="310" y="185" as="targetPoint" />
            <Array as="points">
              <mxPoint x="280" y="185" />
              <mxPoint x="280" y="185" />
            </Array>
          </mxGeometry>
        </mxCell>
        <mxCell id="cg4IfCzOI3apfOPDThto-10" value="mulai" style="text;html=1;align=center;verticalAlign=middle;resizable=0;points=[];autosize=1;strokeColor=none;fillColor=none;" vertex="1" parent="1">
          <mxGeometry x="190" y="148" width="50" height="30" as="geometry" />
        </mxCell>
        <mxCell id="cg4IfCzOI3apfOPDThto-11" value="login" style="rounded=1;whiteSpace=wrap;html=1;arcSize=40;fontColor=#000000;fillColor=#ffffc0;strokeColor=#ff0000;" vertex="1" parent="1">
          <mxGeometry x="320" y="160" width="120" height="40" as="geometry" />
        </mxCell>
        <mxCell id="cg4IfCzOI3apfOPDThto-14" value="" style="rhombus;whiteSpace=wrap;html=1;fontColor=#000000;fillColor=#ffffc0;strokeColor=#ff0000;" vertex="1" parent="1">
          <mxGeometry x="570" y="160" width="80" height="40" as="geometry" />
        </mxCell>
        <mxCell id="cg4IfCzOI3apfOPDThto-17" value="dasbord" style="rounded=1;whiteSpace=wrap;html=1;arcSize=40;fontColor=#000000;fillColor=#ffffc0;strokeColor=#ff0000;" vertex="1" parent="1">
          <mxGeometry x="720" y="160" width="120" height="40" as="geometry" />
        </mxCell>
        <mxCell id="cg4IfCzOI3apfOPDThto-22" value="" style="edgeStyle=orthogonalEdgeStyle;html=1;verticalAlign=bottom;endArrow=open;endSize=8;strokeColor=#ff0000;rounded=0;" edge="1" parent="1" source="cg4IfCzOI3apfOPDThto-11" target="cg4IfCzOI3apfOPDThto-14">
          <mxGeometry relative="1" as="geometry">
            <mxPoint x="580" y="240" as="targetPoint" />
            <mxPoint x="400" y="240" as="sourcePoint" />
            <Array as="points">
              <mxPoint x="500" y="180" />
              <mxPoint x="500" y="180" />
            </Array>
          </mxGeometry>
        </mxCell>
        <mxCell id="cg4IfCzOI3apfOPDThto-23" value="validasi data" style="text;html=1;align=center;verticalAlign=middle;resizable=0;points=[];autosize=1;strokeColor=none;fillColor=none;" vertex="1" parent="1">
          <mxGeometry x="445" y="148" width="90" height="30" as="geometry" />
        </mxCell>
        <mxCell id="cg4IfCzOI3apfOPDThto-24" value="" style="edgeStyle=orthogonalEdgeStyle;html=1;verticalAlign=bottom;endArrow=open;endSize=8;strokeColor=#ff0000;rounded=0;" edge="1" parent="1" source="cg4IfCzOI3apfOPDThto-14" target="cg4IfCzOI3apfOPDThto-11">
          <mxGeometry relative="1" as="geometry">
            <mxPoint x="880" y="70" as="targetPoint" />
            <mxPoint x="700" y="70" as="sourcePoint" />
            <Array as="points">
              <mxPoint x="610" y="120" />
              <mxPoint x="380" y="120" />
            </Array>
          </mxGeometry>
        </mxCell>
        <mxCell id="cg4IfCzOI3apfOPDThto-25" value="false" style="edgeLabel;html=1;align=center;verticalAlign=middle;resizable=0;points=[];" connectable="0" vertex="1" parent="cg4IfCzOI3apfOPDThto-24">
          <mxGeometry x="-0.1642" y="-2" relative="1" as="geometry">
            <mxPoint as="offset" />
          </mxGeometry>
        </mxCell>
        <mxCell id="cg4IfCzOI3apfOPDThto-28" value="" style="edgeStyle=orthogonalEdgeStyle;html=1;verticalAlign=bottom;endArrow=open;endSize=8;strokeColor=#ff0000;rounded=0;" edge="1" parent="1" source="cg4IfCzOI3apfOPDThto-14" target="cg4IfCzOI3apfOPDThto-17">
          <mxGeometry relative="1" as="geometry">
            <mxPoint x="820" y="179.5" as="targetPoint" />
            <mxPoint x="640" y="179.5" as="sourcePoint" />
            <Array as="points" />
          </mxGeometry>
        </mxCell>
        <mxCell id="cg4IfCzOI3apfOPDThto-31" value="true" style="text;html=1;align=center;verticalAlign=middle;resizable=0;points=[];autosize=1;strokeColor=none;fillColor=none;" vertex="1" parent="1">
          <mxGeometry x="650" y="148" width="40" height="30" as="geometry" />
        </mxCell>
        <mxCell id="cg4IfCzOI3apfOPDThto-32" value="" style="ellipse;html=1;shape=endState;fillColor=#000000;strokeColor=#ff0000;" vertex="1" parent="1">
          <mxGeometry x="920" y="170" width="30" height="30" as="geometry" />
        </mxCell>
        <mxCell id="cg4IfCzOI3apfOPDThto-35" value="" style="edgeStyle=orthogonalEdgeStyle;html=1;verticalAlign=bottom;endArrow=open;endSize=8;strokeColor=#ff0000;rounded=0;" edge="1" parent="1" source="cg4IfCzOI3apfOPDThto-17" target="cg4IfCzOI3apfOPDThto-32">
          <mxGeometry relative="1" as="geometry">
            <mxPoint x="940" y="310" as="targetPoint" />
            <mxPoint x="760" y="310" as="sourcePoint" />
            <Array as="points">
              <mxPoint x="850" y="190" />
              <mxPoint x="850" y="190" />
            </Array>
          </mxGeometry>
        </mxCell>
        <mxCell id="cg4IfCzOI3apfOPDThto-37" value="state login" style="text;html=1;align=center;verticalAlign=middle;resizable=0;points=[];autosize=1;strokeColor=none;fillColor=none;" vertex="1" parent="1">
          <mxGeometry x="40" y="90" width="80" height="30" as="geometry" />
        </mxCell>
        <mxCell id="cg4IfCzOI3apfOPDThto-38" value="selesai" style="text;html=1;align=center;verticalAlign=middle;resizable=0;points=[];autosize=1;strokeColor=none;fillColor=none;" vertex="1" parent="1">
          <mxGeometry x="840" y="160" width="60" height="30" as="geometry" />
        </mxCell>
        <mxCell id="cg4IfCzOI3apfOPDThto-50" value="" style="ellipse;html=1;shape=startState;fillColor=#000000;strokeColor=#ff0000;" vertex="1" parent="1">
          <mxGeometry x="140" y="360" width="30" height="30" as="geometry" />
        </mxCell>
        <mxCell id="cg4IfCzOI3apfOPDThto-51" value="" style="edgeStyle=orthogonalEdgeStyle;html=1;verticalAlign=bottom;endArrow=open;endSize=8;strokeColor=#ff0000;rounded=0;" edge="1" parent="1" source="cg4IfCzOI3apfOPDThto-50">
          <mxGeometry relative="1" as="geometry">
            <mxPoint x="310" y="375" as="targetPoint" />
          </mxGeometry>
        </mxCell>
        <mxCell id="cg4IfCzOI3apfOPDThto-52" value="barang" style="rounded=1;whiteSpace=wrap;html=1;arcSize=40;fontColor=#000000;fillColor=#ffffc0;strokeColor=#ff0000;" vertex="1" parent="1">
          <mxGeometry x="310" y="360" width="120" height="40" as="geometry" />
        </mxCell>
        <mxCell id="cg4IfCzOI3apfOPDThto-54" value="state barang" style="text;html=1;align=center;verticalAlign=middle;resizable=0;points=[];autosize=1;strokeColor=none;fillColor=none;" vertex="1" parent="1">
          <mxGeometry x="25" y="310" width="90" height="30" as="geometry" />
        </mxCell>
        <mxCell id="cg4IfCzOI3apfOPDThto-55" value="Text" style="text;html=1;align=center;verticalAlign=middle;resizable=0;points=[];autosize=1;strokeColor=none;fillColor=none;" vertex="1" parent="1">
          <mxGeometry x="1535" y="518" width="50" height="30" as="geometry" />
        </mxCell>
        <mxCell id="cg4IfCzOI3apfOPDThto-57" value="insert" style="rounded=1;whiteSpace=wrap;html=1;arcSize=40;fontColor=#000000;fillColor=#ffffc0;strokeColor=#ff0000;" vertex="1" parent="1">
          <mxGeometry x="590" y="360" width="120" height="40" as="geometry" />
        </mxCell>
        <mxCell id="cg4IfCzOI3apfOPDThto-63" value="" style="edgeStyle=orthogonalEdgeStyle;html=1;verticalAlign=bottom;endArrow=open;endSize=8;strokeColor=#ff0000;rounded=0;exitX=1;exitY=0.5;exitDx=0;exitDy=0;" edge="1" parent="1" source="cg4IfCzOI3apfOPDThto-52">
          <mxGeometry relative="1" as="geometry">
            <mxPoint x="590" y="379.41" as="targetPoint" />
            <mxPoint x="440" y="379.41" as="sourcePoint" />
            <Array as="points">
              <mxPoint x="510" y="380" />
            </Array>
          </mxGeometry>
        </mxCell>
        <mxCell id="cg4IfCzOI3apfOPDThto-66" value="update" style="rounded=1;whiteSpace=wrap;html=1;arcSize=40;fontColor=#000000;fillColor=#ffffc0;strokeColor=#ff0000;" vertex="1" parent="1">
          <mxGeometry x="590" y="450" width="120" height="40" as="geometry" />
        </mxCell>
        <mxCell id="cg4IfCzOI3apfOPDThto-68" value="delete" style="rounded=1;whiteSpace=wrap;html=1;arcSize=40;fontColor=#000000;fillColor=#ffffc0;strokeColor=#ff0000;" vertex="1" parent="1">
          <mxGeometry x="590" y="518" width="120" height="40" as="geometry" />
        </mxCell>
        <mxCell id="cg4IfCzOI3apfOPDThto-71" value="" style="edgeStyle=orthogonalEdgeStyle;html=1;verticalAlign=bottom;endArrow=open;endSize=8;strokeColor=#ff0000;rounded=0;entryX=0;entryY=0.5;entryDx=0;entryDy=0;" edge="1" parent="1">
          <mxGeometry relative="1" as="geometry">
            <mxPoint x="590" y="538" as="targetPoint" />
            <mxPoint x="411" y="450" as="sourcePoint" />
            <Array as="points">
              <mxPoint x="411" y="538" />
            </Array>
          </mxGeometry>
        </mxCell>
        <mxCell id="X_ngh8nFFNuEz0oRanR--1" value="" style="edgeStyle=orthogonalEdgeStyle;html=1;verticalAlign=bottom;endArrow=open;endSize=8;strokeColor=#ff0000;rounded=0;exitX=0.865;exitY=1.039;exitDx=0;exitDy=0;exitPerimeter=0;entryX=0;entryY=0.5;entryDx=0;entryDy=0;" edge="1" parent="1" source="cg4IfCzOI3apfOPDThto-52">
          <mxGeometry relative="1" as="geometry">
            <mxPoint x="590" y="476" as="targetPoint" />
            <mxPoint x="411" y="440" as="sourcePoint" />
            <Array as="points">
              <mxPoint x="411" y="402" />
              <mxPoint x="411" y="476" />
            </Array>
          </mxGeometry>
        </mxCell>
        <mxCell id="X_ngh8nFFNuEz0oRanR--6" value="" style="edgeStyle=orthogonalEdgeStyle;html=1;verticalAlign=bottom;endArrow=open;endSize=8;strokeColor=#ff0000;rounded=0;exitX=1;exitY=0.5;exitDx=0;exitDy=0;" edge="1" parent="1" source="cg4IfCzOI3apfOPDThto-57">
          <mxGeometry relative="1" as="geometry">
            <mxPoint x="810" y="380" as="targetPoint" />
            <mxPoint x="720" y="380.09" as="sourcePoint" />
            <Array as="points">
              <mxPoint x="800" y="380" />
            </Array>
          </mxGeometry>
        </mxCell>
        <mxCell id="X_ngh8nFFNuEz0oRanR--8" value="" style="rhombus;whiteSpace=wrap;html=1;fontColor=#000000;fillColor=#ffffc0;strokeColor=#ff0000;" vertex="1" parent="1">
          <mxGeometry x="810" y="360" width="80" height="40" as="geometry" />
        </mxCell>
        <mxCell id="X_ngh8nFFNuEz0oRanR--11" value="" style="edgeStyle=orthogonalEdgeStyle;html=1;verticalAlign=bottom;endArrow=open;endSize=8;strokeColor=#ff0000;rounded=0;" edge="1" parent="1">
          <mxGeometry relative="1" as="geometry">
            <mxPoint x="620" y="360" as="targetPoint" />
            <mxPoint x="850" y="360" as="sourcePoint" />
            <Array as="points">
              <mxPoint x="850" y="340" />
              <mxPoint x="620" y="340" />
            </Array>
          </mxGeometry>
        </mxCell>
        <mxCell id="X_ngh8nFFNuEz0oRanR--12" value="false" style="edgeLabel;html=1;align=center;verticalAlign=middle;resizable=0;points=[];" connectable="0" vertex="1" parent="X_ngh8nFFNuEz0oRanR--11">
          <mxGeometry x="-0.1642" y="-2" relative="1" as="geometry">
            <mxPoint as="offset" />
          </mxGeometry>
        </mxCell>
        <mxCell id="X_ngh8nFFNuEz0oRanR--15" value="" style="edgeStyle=orthogonalEdgeStyle;html=1;verticalAlign=bottom;endArrow=open;endSize=8;strokeColor=#ff0000;rounded=0;exitX=1;exitY=0.5;exitDx=0;exitDy=0;" edge="1" parent="1">
          <mxGeometry relative="1" as="geometry">
            <mxPoint x="990" y="379.5" as="targetPoint" />
            <mxPoint x="890" y="379.5" as="sourcePoint" />
            <Array as="points">
              <mxPoint x="980" y="379.5" />
            </Array>
          </mxGeometry>
        </mxCell>
        <mxCell id="X_ngh8nFFNuEz0oRanR--17" value="berhasil insert" style="rounded=1;whiteSpace=wrap;html=1;arcSize=40;fontColor=#000000;fillColor=#ffffc0;strokeColor=#ff0000;" vertex="1" parent="1">
          <mxGeometry x="990" y="355" width="120" height="40" as="geometry" />
        </mxCell>
        <mxCell id="X_ngh8nFFNuEz0oRanR--19" value="" style="edgeStyle=orthogonalEdgeStyle;html=1;verticalAlign=bottom;endArrow=open;endSize=8;strokeColor=#ff0000;rounded=0;exitX=1;exitY=0.5;exitDx=0;exitDy=0;" edge="1" parent="1">
          <mxGeometry relative="1" as="geometry">
            <mxPoint x="1210" y="374.5" as="targetPoint" />
            <mxPoint x="1110" y="374.5" as="sourcePoint" />
            <Array as="points">
              <mxPoint x="1200" y="374.5" />
            </Array>
          </mxGeometry>
        </mxCell>
        <mxCell id="X_ngh8nFFNuEz0oRanR--21" value="selesai" style="edgeLabel;html=1;align=center;verticalAlign=middle;resizable=0;points=[];" connectable="0" vertex="1" parent="X_ngh8nFFNuEz0oRanR--19">
          <mxGeometry x="-0.3289" y="4" relative="1" as="geometry">
            <mxPoint as="offset" />
          </mxGeometry>
        </mxCell>
        <mxCell id="X_ngh8nFFNuEz0oRanR--20" value="" style="ellipse;html=1;shape=endState;fillColor=#000000;strokeColor=#ff0000;" vertex="1" parent="1">
          <mxGeometry x="1211" y="360" width="30" height="30" as="geometry" />
        </mxCell>
        <mxCell id="X_ngh8nFFNuEz0oRanR--22" value="" style="edgeStyle=orthogonalEdgeStyle;html=1;verticalAlign=bottom;endArrow=open;endSize=8;strokeColor=#ff0000;rounded=0;exitX=1;exitY=0.5;exitDx=0;exitDy=0;" edge="1" parent="1" source="cg4IfCzOI3apfOPDThto-66">
          <mxGeometry relative="1" as="geometry">
            <mxPoint x="820" y="469.5" as="targetPoint" />
            <mxPoint x="720" y="469.5" as="sourcePoint" />
            <Array as="points">
              <mxPoint x="770" y="470" />
            </Array>
          </mxGeometry>
        </mxCell>
        <mxCell id="X_ngh8nFFNuEz0oRanR--23" value="" style="rhombus;whiteSpace=wrap;html=1;fontColor=#000000;fillColor=#ffffc0;strokeColor=#ff0000;" vertex="1" parent="1">
          <mxGeometry x="820" y="450" width="80" height="40" as="geometry" />
        </mxCell>
        <mxCell id="X_ngh8nFFNuEz0oRanR--24" value="" style="edgeStyle=orthogonalEdgeStyle;html=1;verticalAlign=bottom;endArrow=open;endSize=8;strokeColor=#ff0000;rounded=0;" edge="1" parent="1">
          <mxGeometry relative="1" as="geometry">
            <mxPoint x="630" y="450" as="targetPoint" />
            <mxPoint x="860" y="450" as="sourcePoint" />
            <Array as="points">
              <mxPoint x="860" y="420" />
              <mxPoint x="629" y="420" />
            </Array>
          </mxGeometry>
        </mxCell>
        <mxCell id="X_ngh8nFFNuEz0oRanR--25" value="false" style="edgeLabel;html=1;align=center;verticalAlign=middle;resizable=0;points=[];" connectable="0" vertex="1" parent="X_ngh8nFFNuEz0oRanR--24">
          <mxGeometry x="-0.1642" y="-2" relative="1" as="geometry">
            <mxPoint as="offset" />
          </mxGeometry>
        </mxCell>
        <mxCell id="X_ngh8nFFNuEz0oRanR--27" value="" style="edgeStyle=orthogonalEdgeStyle;html=1;verticalAlign=bottom;endArrow=open;endSize=8;strokeColor=#ff0000;rounded=0;exitX=1;exitY=0.5;exitDx=0;exitDy=0;" edge="1" parent="1">
          <mxGeometry relative="1" as="geometry">
            <mxPoint x="1000" y="469.5" as="targetPoint" />
            <mxPoint x="900" y="469.5" as="sourcePoint" />
            <Array as="points">
              <mxPoint x="990" y="469.5" />
            </Array>
          </mxGeometry>
        </mxCell>
        <mxCell id="X_ngh8nFFNuEz0oRanR--28" value="berhasil update" style="rounded=1;whiteSpace=wrap;html=1;arcSize=40;fontColor=#000000;fillColor=#ffffc0;strokeColor=#ff0000;" vertex="1" parent="1">
          <mxGeometry x="1000" y="450" width="120" height="40" as="geometry" />
        </mxCell>
        <mxCell id="X_ngh8nFFNuEz0oRanR--29" value="" style="edgeStyle=orthogonalEdgeStyle;html=1;verticalAlign=bottom;endArrow=open;endSize=8;strokeColor=#ff0000;rounded=0;exitX=1;exitY=0.5;exitDx=0;exitDy=0;" edge="1" parent="1">
          <mxGeometry relative="1" as="geometry">
            <mxPoint x="1220" y="470" as="targetPoint" />
            <mxPoint x="1120" y="470" as="sourcePoint" />
            <Array as="points">
              <mxPoint x="1210" y="470" />
            </Array>
          </mxGeometry>
        </mxCell>
        <mxCell id="X_ngh8nFFNuEz0oRanR--30" value="selesai" style="edgeLabel;html=1;align=center;verticalAlign=middle;resizable=0;points=[];" connectable="0" vertex="1" parent="X_ngh8nFFNuEz0oRanR--29">
          <mxGeometry x="-0.3289" y="4" relative="1" as="geometry">
            <mxPoint as="offset" />
          </mxGeometry>
        </mxCell>
        <mxCell id="X_ngh8nFFNuEz0oRanR--31" value="" style="ellipse;html=1;shape=endState;fillColor=#000000;strokeColor=#ff0000;" vertex="1" parent="1">
          <mxGeometry x="1221" y="455" width="30" height="30" as="geometry" />
        </mxCell>
        <mxCell id="X_ngh8nFFNuEz0oRanR--32" value="" style="edgeStyle=orthogonalEdgeStyle;html=1;verticalAlign=bottom;endArrow=open;endSize=8;strokeColor=#ff0000;rounded=0;exitX=1;exitY=0.5;exitDx=0;exitDy=0;" edge="1" parent="1">
          <mxGeometry relative="1" as="geometry">
            <mxPoint x="810" y="548" as="targetPoint" />
            <mxPoint x="710" y="548.5" as="sourcePoint" />
            <Array as="points">
              <mxPoint x="765" y="549" />
            </Array>
          </mxGeometry>
        </mxCell>
        <mxCell id="X_ngh8nFFNuEz0oRanR--36" value="" style="rhombus;whiteSpace=wrap;html=1;fontColor=#000000;fillColor=#ffffc0;strokeColor=#ff0000;" vertex="1" parent="1">
          <mxGeometry x="810" y="530" width="80" height="40" as="geometry" />
        </mxCell>
        <mxCell id="X_ngh8nFFNuEz0oRanR--37" value="" style="edgeStyle=orthogonalEdgeStyle;html=1;verticalAlign=bottom;endArrow=open;endSize=8;strokeColor=#ff0000;rounded=0;exitX=1;exitY=0.5;exitDx=0;exitDy=0;" edge="1" parent="1">
          <mxGeometry relative="1" as="geometry">
            <mxPoint x="990" y="549.5" as="targetPoint" />
            <mxPoint x="890" y="549.5" as="sourcePoint" />
            <Array as="points">
              <mxPoint x="980" y="549.5" />
            </Array>
          </mxGeometry>
        </mxCell>
        <mxCell id="X_ngh8nFFNuEz0oRanR--38" value="berhasil&amp;nbsp; delete" style="rounded=1;whiteSpace=wrap;html=1;arcSize=40;fontColor=#000000;fillColor=#ffffc0;strokeColor=#ff0000;" vertex="1" parent="1">
          <mxGeometry x="990" y="530" width="120" height="40" as="geometry" />
        </mxCell>
        <mxCell id="X_ngh8nFFNuEz0oRanR--39" value="" style="edgeStyle=orthogonalEdgeStyle;html=1;verticalAlign=bottom;endArrow=open;endSize=8;strokeColor=#ff0000;rounded=0;exitX=1;exitY=0.5;exitDx=0;exitDy=0;" edge="1" parent="1">
          <mxGeometry relative="1" as="geometry">
            <mxPoint x="1211" y="549.5" as="targetPoint" />
            <mxPoint x="1111" y="549.5" as="sourcePoint" />
            <Array as="points">
              <mxPoint x="1201" y="549.5" />
            </Array>
          </mxGeometry>
        </mxCell>
        <mxCell id="X_ngh8nFFNuEz0oRanR--40" value="selesai" style="edgeLabel;html=1;align=center;verticalAlign=middle;resizable=0;points=[];" connectable="0" vertex="1" parent="X_ngh8nFFNuEz0oRanR--39">
          <mxGeometry x="-0.3289" y="4" relative="1" as="geometry">
            <mxPoint as="offset" />
          </mxGeometry>
        </mxCell>
        <mxCell id="X_ngh8nFFNuEz0oRanR--41" value="" style="ellipse;html=1;shape=endState;fillColor=#000000;strokeColor=#ff0000;" vertex="1" parent="1">
          <mxGeometry x="1211" y="530" width="30" height="30" as="geometry" />
        </mxCell>
        <mxCell id="X_ngh8nFFNuEz0oRanR--42" value="" style="edgeStyle=orthogonalEdgeStyle;html=1;verticalAlign=bottom;endArrow=open;endSize=8;strokeColor=#ff0000;rounded=0;exitX=0.5;exitY=1;exitDx=0;exitDy=0;" edge="1" parent="1">
          <mxGeometry relative="1" as="geometry">
            <mxPoint x="630" y="558" as="targetPoint" />
            <mxPoint x="850" y="568" as="sourcePoint" />
            <Array as="points">
              <mxPoint x="850" y="608" />
              <mxPoint x="630" y="608" />
            </Array>
          </mxGeometry>
        </mxCell>
        <mxCell id="X_ngh8nFFNuEz0oRanR--43" value="false" style="edgeLabel;html=1;align=center;verticalAlign=middle;resizable=0;points=[];" connectable="0" vertex="1" parent="X_ngh8nFFNuEz0oRanR--42">
          <mxGeometry x="-0.1642" y="-2" relative="1" as="geometry">
            <mxPoint as="offset" />
          </mxGeometry>
        </mxCell>
        <mxCell id="X_ngh8nFFNuEz0oRanR--46" value="state peminjaman" style="text;html=1;align=center;verticalAlign=middle;resizable=0;points=[];autosize=1;strokeColor=none;fillColor=none;" vertex="1" parent="1">
          <mxGeometry x="60" y="710" width="120" height="30" as="geometry" />
        </mxCell>
        <mxCell id="X_ngh8nFFNuEz0oRanR--47" value="" style="ellipse;html=1;shape=startState;fillColor=#000000;strokeColor=#ff0000;" vertex="1" parent="1">
          <mxGeometry x="140" y="780" width="30" height="30" as="geometry" />
        </mxCell>
        <mxCell id="X_ngh8nFFNuEz0oRanR--49" value="" style="edgeStyle=orthogonalEdgeStyle;html=1;verticalAlign=bottom;endArrow=open;endSize=8;strokeColor=#ff0000;rounded=0;" edge="1" parent="1">
          <mxGeometry relative="1" as="geometry">
            <mxPoint x="320" y="794" as="targetPoint" />
            <mxPoint x="170" y="794.29" as="sourcePoint" />
            <Array as="points">
              <mxPoint x="270" y="794.29" />
              <mxPoint x="270" y="794.29" />
            </Array>
          </mxGeometry>
        </mxCell>
        <mxCell id="X_ngh8nFFNuEz0oRanR--50" value="peminjaman" style="rounded=1;whiteSpace=wrap;html=1;arcSize=40;fontColor=#000000;fillColor=#ffffc0;strokeColor=#ff0000;" vertex="1" parent="1">
          <mxGeometry x="325" y="775" width="120" height="40" as="geometry" />
        </mxCell>
        <mxCell id="X_ngh8nFFNuEz0oRanR--52" value="insert" style="rounded=1;whiteSpace=wrap;html=1;arcSize=40;fontColor=#000000;fillColor=#ffffc0;strokeColor=#ff0000;" vertex="1" parent="1">
          <mxGeometry x="590" y="780" width="120" height="40" as="geometry" />
        </mxCell>
        <mxCell id="X_ngh8nFFNuEz0oRanR--53" value="" style="edgeStyle=orthogonalEdgeStyle;html=1;verticalAlign=bottom;endArrow=open;endSize=8;strokeColor=#ff0000;rounded=0;exitX=1;exitY=0.5;exitDx=0;exitDy=0;" edge="1" parent="1">
          <mxGeometry relative="1" as="geometry">
            <mxPoint x="810" y="794.29" as="targetPoint" />
            <mxPoint x="710" y="794.29" as="sourcePoint" />
            <Array as="points">
              <mxPoint x="800" y="794.29" />
            </Array>
          </mxGeometry>
        </mxCell>
        <mxCell id="X_ngh8nFFNuEz0oRanR--54" value="" style="rhombus;whiteSpace=wrap;html=1;fontColor=#000000;fillColor=#ffffc0;strokeColor=#ff0000;" vertex="1" parent="1">
          <mxGeometry x="810" y="775" width="80" height="40" as="geometry" />
        </mxCell>
        <mxCell id="X_ngh8nFFNuEz0oRanR--56" value="" style="edgeStyle=orthogonalEdgeStyle;html=1;verticalAlign=bottom;endArrow=open;endSize=8;strokeColor=#ff0000;rounded=0;" edge="1" parent="1">
          <mxGeometry relative="1" as="geometry">
            <mxPoint x="620" y="775" as="targetPoint" />
            <mxPoint x="850" y="775" as="sourcePoint" />
            <Array as="points">
              <mxPoint x="850" y="755" />
              <mxPoint x="620" y="755" />
            </Array>
          </mxGeometry>
        </mxCell>
        <mxCell id="X_ngh8nFFNuEz0oRanR--57" value="false" style="edgeLabel;html=1;align=center;verticalAlign=middle;resizable=0;points=[];" connectable="0" vertex="1" parent="X_ngh8nFFNuEz0oRanR--56">
          <mxGeometry x="-0.1642" y="-2" relative="1" as="geometry">
            <mxPoint as="offset" />
          </mxGeometry>
        </mxCell>
        <mxCell id="X_ngh8nFFNuEz0oRanR--59" value="" style="edgeStyle=orthogonalEdgeStyle;html=1;verticalAlign=bottom;endArrow=open;endSize=8;strokeColor=#ff0000;rounded=0;exitX=1;exitY=0.5;exitDx=0;exitDy=0;" edge="1" parent="1" source="X_ngh8nFFNuEz0oRanR--54">
          <mxGeometry relative="1" as="geometry">
            <mxPoint x="1010" y="794.36" as="targetPoint" />
            <mxPoint x="910" y="794.36" as="sourcePoint" />
            <Array as="points" />
          </mxGeometry>
        </mxCell>
        <mxCell id="X_ngh8nFFNuEz0oRanR--60" value="berhasil insert" style="rounded=1;whiteSpace=wrap;html=1;arcSize=40;fontColor=#000000;fillColor=#ffffc0;strokeColor=#ff0000;" vertex="1" parent="1">
          <mxGeometry x="1010" y="775" width="120" height="40" as="geometry" />
        </mxCell>
        <mxCell id="X_ngh8nFFNuEz0oRanR--61" value="" style="edgeStyle=orthogonalEdgeStyle;html=1;verticalAlign=bottom;endArrow=open;endSize=8;strokeColor=#ff0000;rounded=0;exitX=1;exitY=0.5;exitDx=0;exitDy=0;" edge="1" parent="1">
          <mxGeometry relative="1" as="geometry">
            <mxPoint x="1230" y="794.36" as="targetPoint" />
            <mxPoint x="1130" y="794.36" as="sourcePoint" />
            <Array as="points">
              <mxPoint x="1220" y="794.36" />
            </Array>
          </mxGeometry>
        </mxCell>
        <mxCell id="X_ngh8nFFNuEz0oRanR--62" value="selesai" style="edgeLabel;html=1;align=center;verticalAlign=middle;resizable=0;points=[];" connectable="0" vertex="1" parent="X_ngh8nFFNuEz0oRanR--61">
          <mxGeometry x="-0.3289" y="4" relative="1" as="geometry">
            <mxPoint as="offset" />
          </mxGeometry>
        </mxCell>
        <mxCell id="X_ngh8nFFNuEz0oRanR--63" value="" style="ellipse;html=1;shape=endState;fillColor=#000000;strokeColor=#ff0000;" vertex="1" parent="1">
          <mxGeometry x="1230" y="780" width="34" height="30" as="geometry" />
        </mxCell>
        <mxCell id="X_ngh8nFFNuEz0oRanR--68" value="" style="edgeStyle=orthogonalEdgeStyle;html=1;verticalAlign=bottom;endArrow=open;endSize=8;strokeColor=#ff0000;rounded=0;exitX=0.865;exitY=1.039;exitDx=0;exitDy=0;exitPerimeter=0;" edge="1" parent="1">
          <mxGeometry relative="1" as="geometry">
            <mxPoint x="580" y="889" as="targetPoint" />
            <mxPoint x="417" y="815" as="sourcePoint" />
            <Array as="points">
              <mxPoint x="414" y="815" />
              <mxPoint x="414" y="889" />
            </Array>
          </mxGeometry>
        </mxCell>
        <mxCell id="X_ngh8nFFNuEz0oRanR--70" value="update" style="rounded=1;whiteSpace=wrap;html=1;arcSize=40;fontColor=#000000;fillColor=#ffffc0;strokeColor=#ff0000;" vertex="1" parent="1">
          <mxGeometry x="580" y="870" width="120" height="40" as="geometry" />
        </mxCell>
        <mxCell id="X_ngh8nFFNuEz0oRanR--71" value="" style="edgeStyle=orthogonalEdgeStyle;html=1;verticalAlign=bottom;endArrow=open;endSize=8;strokeColor=#ff0000;rounded=0;exitX=1;exitY=0.5;exitDx=0;exitDy=0;entryX=0;entryY=0.5;entryDx=0;entryDy=0;" edge="1" parent="1" target="X_ngh8nFFNuEz0oRanR--74">
          <mxGeometry relative="1" as="geometry">
            <mxPoint x="800" y="890" as="targetPoint" />
            <mxPoint x="700" y="890" as="sourcePoint" />
            <Array as="points" />
          </mxGeometry>
        </mxCell>
        <mxCell id="X_ngh8nFFNuEz0oRanR--72" value="" style="edgeStyle=orthogonalEdgeStyle;html=1;verticalAlign=bottom;endArrow=open;endSize=8;strokeColor=#ff0000;rounded=0;" edge="1" parent="1">
          <mxGeometry relative="1" as="geometry">
            <mxPoint x="620" y="870" as="targetPoint" />
            <mxPoint x="850" y="870" as="sourcePoint" />
            <Array as="points">
              <mxPoint x="850" y="850" />
              <mxPoint x="620" y="850" />
            </Array>
          </mxGeometry>
        </mxCell>
        <mxCell id="X_ngh8nFFNuEz0oRanR--73" value="false" style="edgeLabel;html=1;align=center;verticalAlign=middle;resizable=0;points=[];" connectable="0" vertex="1" parent="X_ngh8nFFNuEz0oRanR--72">
          <mxGeometry x="-0.1642" y="-2" relative="1" as="geometry">
            <mxPoint as="offset" />
          </mxGeometry>
        </mxCell>
        <mxCell id="X_ngh8nFFNuEz0oRanR--74" value="" style="rhombus;whiteSpace=wrap;html=1;fontColor=#000000;fillColor=#ffffc0;strokeColor=#ff0000;" vertex="1" parent="1">
          <mxGeometry x="810" y="870" width="80" height="40" as="geometry" />
        </mxCell>
        <mxCell id="X_ngh8nFFNuEz0oRanR--75" value="" style="edgeStyle=orthogonalEdgeStyle;html=1;verticalAlign=bottom;endArrow=open;endSize=8;strokeColor=#ff0000;rounded=0;exitX=1;exitY=0.5;exitDx=0;exitDy=0;" edge="1" parent="1">
          <mxGeometry relative="1" as="geometry">
            <mxPoint x="1010" y="889.29" as="targetPoint" />
            <mxPoint x="890" y="889.9300000000001" as="sourcePoint" />
            <Array as="points" />
          </mxGeometry>
        </mxCell>
        <mxCell id="X_ngh8nFFNuEz0oRanR--76" value="berhasil update" style="rounded=1;whiteSpace=wrap;html=1;arcSize=40;fontColor=#000000;fillColor=#ffffc0;strokeColor=#ff0000;" vertex="1" parent="1">
          <mxGeometry x="1010" y="870" width="120" height="40" as="geometry" />
        </mxCell>
        <mxCell id="X_ngh8nFFNuEz0oRanR--77" value="" style="edgeStyle=orthogonalEdgeStyle;html=1;verticalAlign=bottom;endArrow=open;endSize=8;strokeColor=#ff0000;rounded=0;exitX=1;exitY=0.5;exitDx=0;exitDy=0;" edge="1" parent="1">
          <mxGeometry relative="1" as="geometry">
            <mxPoint x="1230" y="889.29" as="targetPoint" />
            <mxPoint x="1130" y="889.29" as="sourcePoint" />
            <Array as="points">
              <mxPoint x="1160" y="888.9300000000001" />
              <mxPoint x="1160" y="888.9300000000001" />
            </Array>
          </mxGeometry>
        </mxCell>
        <mxCell id="X_ngh8nFFNuEz0oRanR--78" value="selesai" style="edgeLabel;html=1;align=center;verticalAlign=middle;resizable=0;points=[];" connectable="0" vertex="1" parent="X_ngh8nFFNuEz0oRanR--77">
          <mxGeometry x="-0.3289" y="4" relative="1" as="geometry">
            <mxPoint x="17" y="5" as="offset" />
          </mxGeometry>
        </mxCell>
        <mxCell id="X_ngh8nFFNuEz0oRanR--81" value="" style="ellipse;html=1;shape=endState;fillColor=#000000;strokeColor=#ff0000;" vertex="1" parent="1">
          <mxGeometry x="1230" y="870" width="34" height="30" as="geometry" />
        </mxCell>
        <mxCell id="A5GMixs7dAgOlRuMCkrk-1" value="" style="edgeStyle=orthogonalEdgeStyle;html=1;verticalAlign=bottom;endArrow=open;endSize=8;strokeColor=#ff0000;rounded=0;exitX=0.865;exitY=1.039;exitDx=0;exitDy=0;exitPerimeter=0;" edge="1" parent="1">
          <mxGeometry relative="1" as="geometry">
            <mxPoint x="580" y="954" as="targetPoint" />
            <mxPoint x="417" y="880" as="sourcePoint" />
            <Array as="points">
              <mxPoint x="414" y="880" />
              <mxPoint x="414" y="954" />
            </Array>
          </mxGeometry>
        </mxCell>
        <mxCell id="A5GMixs7dAgOlRuMCkrk-2" value="laporan" style="rounded=1;whiteSpace=wrap;html=1;arcSize=40;fontColor=#000000;fillColor=#ffffc0;strokeColor=#ff0000;" vertex="1" parent="1">
          <mxGeometry x="580" y="930" width="120" height="40" as="geometry" />
        </mxCell>
        <mxCell id="A5GMixs7dAgOlRuMCkrk-3" value="" style="edgeStyle=orthogonalEdgeStyle;html=1;verticalAlign=bottom;endArrow=open;endSize=8;strokeColor=#ff0000;rounded=0;exitX=1;exitY=0.5;exitDx=0;exitDy=0;entryX=0;entryY=0.5;entryDx=0;entryDy=0;" edge="1" parent="1">
          <mxGeometry relative="1" as="geometry">
            <mxPoint x="810" y="949.58" as="targetPoint" />
            <mxPoint x="700" y="949.58" as="sourcePoint" />
            <Array as="points" />
          </mxGeometry>
        </mxCell>
        <mxCell id="A5GMixs7dAgOlRuMCkrk-7" value="berhasil" style="edgeLabel;html=1;align=center;verticalAlign=middle;resizable=0;points=[];" connectable="0" vertex="1" parent="A5GMixs7dAgOlRuMCkrk-3">
          <mxGeometry x="0.0814" y="1" relative="1" as="geometry">
            <mxPoint as="offset" />
          </mxGeometry>
        </mxCell>
        <mxCell id="A5GMixs7dAgOlRuMCkrk-6" value="" style="ellipse;html=1;shape=endState;fillColor=#000000;strokeColor=#ff0000;" vertex="1" parent="1">
          <mxGeometry x="810" y="940" width="34" height="30" as="geometry" />
        </mxCell>
        <mxCell id="A5GMixs7dAgOlRuMCkrk-8" value="&amp;nbsp;state user&lt;div&gt;&lt;br&gt;&lt;/div&gt;" style="text;html=1;align=center;verticalAlign=middle;resizable=0;points=[];autosize=1;strokeColor=none;fillColor=none;" vertex="1" parent="1">
          <mxGeometry x="50" y="1050" width="80" height="40" as="geometry" />
        </mxCell>
        <mxCell id="A5GMixs7dAgOlRuMCkrk-10" value="" style="ellipse;html=1;shape=startState;fillColor=#000000;strokeColor=#ff0000;" vertex="1" parent="1">
          <mxGeometry x="130" y="1100" width="30" height="30" as="geometry" />
        </mxCell>
        <mxCell id="A5GMixs7dAgOlRuMCkrk-11" value="" style="edgeStyle=orthogonalEdgeStyle;html=1;verticalAlign=bottom;endArrow=open;endSize=8;strokeColor=#ff0000;rounded=0;" edge="1" parent="1">
          <mxGeometry relative="1" as="geometry">
            <mxPoint x="300" y="1114.47" as="targetPoint" />
            <mxPoint x="160" y="1114.47" as="sourcePoint" />
            <Array as="points">
              <mxPoint x="260" y="1114.47" />
              <mxPoint x="260" y="1114.47" />
            </Array>
          </mxGeometry>
        </mxCell>
        <mxCell id="A5GMixs7dAgOlRuMCkrk-12" value="user" style="rounded=1;whiteSpace=wrap;html=1;arcSize=40;fontColor=#000000;fillColor=#ffffc0;strokeColor=#ff0000;" vertex="1" parent="1">
          <mxGeometry x="300" y="1090" width="120" height="40" as="geometry" />
        </mxCell>
        <mxCell id="A5GMixs7dAgOlRuMCkrk-14" value="" style="edgeStyle=orthogonalEdgeStyle;html=1;verticalAlign=bottom;endArrow=open;endSize=8;strokeColor=#ff0000;rounded=0;exitX=1;exitY=0.5;exitDx=0;exitDy=0;" edge="1" parent="1">
          <mxGeometry relative="1" as="geometry">
            <mxPoint x="590" y="795" as="targetPoint" />
            <mxPoint x="445" y="795.21" as="sourcePoint" />
            <Array as="points">
              <mxPoint x="525" y="795.21" />
            </Array>
          </mxGeometry>
        </mxCell>
        <mxCell id="A5GMixs7dAgOlRuMCkrk-15" value="" style="edgeStyle=orthogonalEdgeStyle;html=1;verticalAlign=bottom;endArrow=open;endSize=8;strokeColor=#ff0000;rounded=0;exitX=1;exitY=0.5;exitDx=0;exitDy=0;entryX=0;entryY=0.5;entryDx=0;entryDy=0;" edge="1" parent="1">
          <mxGeometry relative="1" as="geometry">
            <mxPoint x="570" y="1114.61" as="targetPoint" />
            <mxPoint x="420" y="1114.4399999999998" as="sourcePoint" />
            <Array as="points" />
          </mxGeometry>
        </mxCell>
        <mxCell id="A5GMixs7dAgOlRuMCkrk-16" value="insert" style="rounded=1;whiteSpace=wrap;html=1;arcSize=40;fontColor=#000000;fillColor=#ffffc0;strokeColor=#ff0000;" vertex="1" parent="1">
          <mxGeometry x="570" y="1090" width="120" height="40" as="geometry" />
        </mxCell>
        <mxCell id="A5GMixs7dAgOlRuMCkrk-17" value="" style="edgeStyle=orthogonalEdgeStyle;html=1;verticalAlign=bottom;endArrow=open;endSize=8;strokeColor=#ff0000;rounded=0;exitX=1;exitY=0.5;exitDx=0;exitDy=0;" edge="1" parent="1">
          <mxGeometry relative="1" as="geometry">
            <mxPoint x="790" y="1114.44" as="targetPoint" />
            <mxPoint x="690" y="1114.44" as="sourcePoint" />
            <Array as="points">
              <mxPoint x="780" y="1114.44" />
            </Array>
          </mxGeometry>
        </mxCell>
        <mxCell id="A5GMixs7dAgOlRuMCkrk-19" value="" style="edgeStyle=orthogonalEdgeStyle;html=1;verticalAlign=bottom;endArrow=open;endSize=8;strokeColor=#ff0000;rounded=0;exitX=0.5;exitY=0;exitDx=0;exitDy=0;" edge="1" parent="1" source="A5GMixs7dAgOlRuMCkrk-21">
          <mxGeometry relative="1" as="geometry">
            <mxPoint x="637" y="1090" as="targetPoint" />
            <mxPoint x="840" y="1090" as="sourcePoint" />
            <Array as="points">
              <mxPoint x="827" y="1095" />
              <mxPoint x="827" y="1070" />
              <mxPoint x="637" y="1070" />
            </Array>
          </mxGeometry>
        </mxCell>
        <mxCell id="A5GMixs7dAgOlRuMCkrk-20" value="false" style="edgeLabel;html=1;align=center;verticalAlign=middle;resizable=0;points=[];" connectable="0" vertex="1" parent="A5GMixs7dAgOlRuMCkrk-19">
          <mxGeometry x="-0.1642" y="-2" relative="1" as="geometry">
            <mxPoint as="offset" />
          </mxGeometry>
        </mxCell>
        <mxCell id="A5GMixs7dAgOlRuMCkrk-21" value="" style="rhombus;whiteSpace=wrap;html=1;fontColor=#000000;fillColor=#ffffc0;strokeColor=#ff0000;" vertex="1" parent="1">
          <mxGeometry x="790" y="1095" width="80" height="40" as="geometry" />
        </mxCell>
        <mxCell id="A5GMixs7dAgOlRuMCkrk-23" value="" style="edgeStyle=orthogonalEdgeStyle;html=1;verticalAlign=bottom;endArrow=open;endSize=8;strokeColor=#ff0000;rounded=0;exitX=1;exitY=0.5;exitDx=0;exitDy=0;" edge="1" parent="1">
          <mxGeometry relative="1" as="geometry">
            <mxPoint x="990" y="1114.4" as="targetPoint" />
            <mxPoint x="870" y="1115.04" as="sourcePoint" />
            <Array as="points" />
          </mxGeometry>
        </mxCell>
        <mxCell id="A5GMixs7dAgOlRuMCkrk-22" value="" style="edgeStyle=orthogonalEdgeStyle;html=1;verticalAlign=bottom;endArrow=open;endSize=8;strokeColor=#ff0000;rounded=0;exitX=1;exitY=0.5;exitDx=0;exitDy=0;" edge="1" parent="1">
          <mxGeometry relative="1" as="geometry">
            <mxPoint x="1020" y="804.36" as="targetPoint" />
            <mxPoint x="900" y="805" as="sourcePoint" />
            <Array as="points" />
          </mxGeometry>
        </mxCell>
        <mxCell id="A5GMixs7dAgOlRuMCkrk-24" value="berhasil insert" style="rounded=1;whiteSpace=wrap;html=1;arcSize=40;fontColor=#000000;fillColor=#ffffc0;strokeColor=#ff0000;" vertex="1" parent="1">
          <mxGeometry x="990" y="1095" width="120" height="40" as="geometry" />
        </mxCell>
        <mxCell id="A5GMixs7dAgOlRuMCkrk-25" value="" style="edgeStyle=orthogonalEdgeStyle;html=1;verticalAlign=bottom;endArrow=open;endSize=8;strokeColor=#ff0000;rounded=0;exitX=1;exitY=0.5;exitDx=0;exitDy=0;" edge="1" parent="1">
          <mxGeometry relative="1" as="geometry">
            <mxPoint x="1211" y="1114.44" as="targetPoint" />
            <mxPoint x="1111" y="1114.44" as="sourcePoint" />
            <Array as="points">
              <mxPoint x="1201" y="1114.44" />
            </Array>
          </mxGeometry>
        </mxCell>
        <mxCell id="A5GMixs7dAgOlRuMCkrk-26" value="selesai" style="edgeLabel;html=1;align=center;verticalAlign=middle;resizable=0;points=[];" connectable="0" vertex="1" parent="A5GMixs7dAgOlRuMCkrk-25">
          <mxGeometry x="-0.3289" y="4" relative="1" as="geometry">
            <mxPoint as="offset" />
          </mxGeometry>
        </mxCell>
        <mxCell id="A5GMixs7dAgOlRuMCkrk-27" value="" style="ellipse;html=1;shape=endState;fillColor=#000000;strokeColor=#ff0000;" vertex="1" parent="1">
          <mxGeometry x="1211" y="1100" width="34" height="30" as="geometry" />
        </mxCell>
        <mxCell id="A5GMixs7dAgOlRuMCkrk-28" value="" style="edgeStyle=orthogonalEdgeStyle;html=1;verticalAlign=bottom;endArrow=open;endSize=8;strokeColor=#ff0000;rounded=0;exitX=0.865;exitY=1.039;exitDx=0;exitDy=0;exitPerimeter=0;" edge="1" parent="1">
          <mxGeometry relative="1" as="geometry">
            <mxPoint x="570" y="1204" as="targetPoint" />
            <mxPoint x="407" y="1130" as="sourcePoint" />
            <Array as="points">
              <mxPoint x="404" y="1130" />
              <mxPoint x="404" y="1204" />
            </Array>
          </mxGeometry>
        </mxCell>
        <mxCell id="A5GMixs7dAgOlRuMCkrk-29" value="update" style="rounded=1;whiteSpace=wrap;html=1;arcSize=40;fontColor=#000000;fillColor=#ffffc0;strokeColor=#ff0000;" vertex="1" parent="1">
          <mxGeometry x="570" y="1180" width="120" height="40" as="geometry" />
        </mxCell>
        <mxCell id="A5GMixs7dAgOlRuMCkrk-30" value="" style="edgeStyle=orthogonalEdgeStyle;html=1;verticalAlign=bottom;endArrow=open;endSize=8;strokeColor=#ff0000;rounded=0;exitX=0.5;exitY=0;exitDx=0;exitDy=0;" edge="1" parent="1" source="A5GMixs7dAgOlRuMCkrk-33">
          <mxGeometry relative="1" as="geometry">
            <mxPoint x="630" y="1180" as="targetPoint" />
            <mxPoint x="860" y="1180" as="sourcePoint" />
            <Array as="points">
              <mxPoint x="840" y="1160" />
              <mxPoint x="630" y="1160" />
            </Array>
          </mxGeometry>
        </mxCell>
        <mxCell id="A5GMixs7dAgOlRuMCkrk-31" value="false" style="edgeLabel;html=1;align=center;verticalAlign=middle;resizable=0;points=[];" connectable="0" vertex="1" parent="A5GMixs7dAgOlRuMCkrk-30">
          <mxGeometry x="-0.1642" y="-2" relative="1" as="geometry">
            <mxPoint as="offset" />
          </mxGeometry>
        </mxCell>
        <mxCell id="A5GMixs7dAgOlRuMCkrk-32" value="" style="edgeStyle=orthogonalEdgeStyle;html=1;verticalAlign=bottom;endArrow=open;endSize=8;strokeColor=#ff0000;rounded=0;exitX=1;exitY=0.5;exitDx=0;exitDy=0;entryX=0;entryY=0.5;entryDx=0;entryDy=0;" edge="1" parent="1">
          <mxGeometry relative="1" as="geometry">
            <mxPoint x="800" y="1199.44" as="targetPoint" />
            <mxPoint x="690" y="1199.44" as="sourcePoint" />
            <Array as="points" />
          </mxGeometry>
        </mxCell>
        <mxCell id="A5GMixs7dAgOlRuMCkrk-33" value="" style="rhombus;whiteSpace=wrap;html=1;fontColor=#000000;fillColor=#ffffc0;strokeColor=#ff0000;" vertex="1" parent="1">
          <mxGeometry x="800" y="1180" width="80" height="40" as="geometry" />
        </mxCell>
        <mxCell id="A5GMixs7dAgOlRuMCkrk-34" value="berhasil update" style="rounded=1;whiteSpace=wrap;html=1;arcSize=40;fontColor=#000000;fillColor=#ffffc0;strokeColor=#ff0000;" vertex="1" parent="1">
          <mxGeometry x="990" y="1180" width="120" height="40" as="geometry" />
        </mxCell>
        <mxCell id="A5GMixs7dAgOlRuMCkrk-36" value="" style="edgeStyle=orthogonalEdgeStyle;html=1;verticalAlign=bottom;endArrow=open;endSize=8;strokeColor=#ff0000;rounded=0;exitX=1;exitY=0.5;exitDx=0;exitDy=0;" edge="1" parent="1">
          <mxGeometry relative="1" as="geometry">
            <mxPoint x="995" y="1199.42" as="targetPoint" />
            <mxPoint x="875" y="1200.06" as="sourcePoint" />
            <Array as="points" />
          </mxGeometry>
        </mxCell>
        <mxCell id="A5GMixs7dAgOlRuMCkrk-39" value="" style="edgeStyle=orthogonalEdgeStyle;html=1;verticalAlign=bottom;endArrow=open;endSize=8;strokeColor=#ff0000;rounded=0;exitX=1;exitY=0.5;exitDx=0;exitDy=0;" edge="1" parent="1">
          <mxGeometry relative="1" as="geometry">
            <mxPoint x="1211" y="1199.44" as="targetPoint" />
            <mxPoint x="1111" y="1199.44" as="sourcePoint" />
            <Array as="points">
              <mxPoint x="1201" y="1199.44" />
            </Array>
          </mxGeometry>
        </mxCell>
        <mxCell id="A5GMixs7dAgOlRuMCkrk-40" value="selesai" style="edgeLabel;html=1;align=center;verticalAlign=middle;resizable=0;points=[];" connectable="0" vertex="1" parent="A5GMixs7dAgOlRuMCkrk-39">
          <mxGeometry x="-0.3289" y="4" relative="1" as="geometry">
            <mxPoint as="offset" />
          </mxGeometry>
        </mxCell>
        <mxCell id="A5GMixs7dAgOlRuMCkrk-41" value="" style="ellipse;html=1;shape=endState;fillColor=#000000;strokeColor=#ff0000;" vertex="1" parent="1">
          <mxGeometry x="1211" y="1185" width="34" height="30" as="geometry" />
        </mxCell>
        <mxCell id="A5GMixs7dAgOlRuMCkrk-44" value="delete" style="rounded=1;whiteSpace=wrap;html=1;arcSize=40;fontColor=#000000;fillColor=#ffffc0;strokeColor=#ff0000;" vertex="1" parent="1">
          <mxGeometry x="570" y="1240" width="120" height="40" as="geometry" />
        </mxCell>
        <mxCell id="A5GMixs7dAgOlRuMCkrk-47" value="berhasil&amp;nbsp; delete" style="rounded=1;whiteSpace=wrap;html=1;arcSize=40;fontColor=#000000;fillColor=#ffffc0;strokeColor=#ff0000;" vertex="1" parent="1">
          <mxGeometry x="990" y="1240" width="120" height="40" as="geometry" />
        </mxCell>
        <mxCell id="A5GMixs7dAgOlRuMCkrk-48" value="" style="edgeStyle=orthogonalEdgeStyle;html=1;verticalAlign=bottom;endArrow=open;endSize=8;strokeColor=#ff0000;rounded=0;exitX=0.865;exitY=1.039;exitDx=0;exitDy=0;exitPerimeter=0;" edge="1" parent="1">
          <mxGeometry relative="1" as="geometry">
            <mxPoint x="570" y="1254" as="targetPoint" />
            <mxPoint x="407" y="1180" as="sourcePoint" />
            <Array as="points">
              <mxPoint x="404" y="1180" />
              <mxPoint x="404" y="1254" />
            </Array>
          </mxGeometry>
        </mxCell>
        <mxCell id="A5GMixs7dAgOlRuMCkrk-49" value="" style="edgeStyle=orthogonalEdgeStyle;html=1;verticalAlign=bottom;endArrow=open;endSize=8;strokeColor=#ff0000;rounded=0;exitX=1;exitY=0.5;exitDx=0;exitDy=0;entryX=0;entryY=0.5;entryDx=0;entryDy=0;" edge="1" parent="1">
          <mxGeometry relative="1" as="geometry">
            <mxPoint x="800" y="1259.44" as="targetPoint" />
            <mxPoint x="690" y="1259.44" as="sourcePoint" />
            <Array as="points" />
          </mxGeometry>
        </mxCell>
        <mxCell id="A5GMixs7dAgOlRuMCkrk-50" value="" style="rhombus;whiteSpace=wrap;html=1;fontColor=#000000;fillColor=#ffffc0;strokeColor=#ff0000;" vertex="1" parent="1">
          <mxGeometry x="800" y="1240" width="80" height="40" as="geometry" />
        </mxCell>
        <mxCell id="A5GMixs7dAgOlRuMCkrk-51" value="" style="edgeStyle=orthogonalEdgeStyle;html=1;verticalAlign=bottom;endArrow=open;endSize=8;strokeColor=#ff0000;rounded=0;exitX=0.5;exitY=1;exitDx=0;exitDy=0;entryX=0.417;entryY=1;entryDx=0;entryDy=0;entryPerimeter=0;" edge="1" parent="1" target="A5GMixs7dAgOlRuMCkrk-44">
          <mxGeometry relative="1" as="geometry">
            <mxPoint x="620" y="1290" as="targetPoint" />
            <mxPoint x="840" y="1280" as="sourcePoint" />
            <Array as="points">
              <mxPoint x="840" y="1320" />
              <mxPoint x="620" y="1320" />
            </Array>
          </mxGeometry>
        </mxCell>
        <mxCell id="A5GMixs7dAgOlRuMCkrk-52" value="false" style="edgeLabel;html=1;align=center;verticalAlign=middle;resizable=0;points=[];" connectable="0" vertex="1" parent="A5GMixs7dAgOlRuMCkrk-51">
          <mxGeometry x="-0.1642" y="-2" relative="1" as="geometry">
            <mxPoint as="offset" />
          </mxGeometry>
        </mxCell>
        <mxCell id="A5GMixs7dAgOlRuMCkrk-53" value="" style="edgeStyle=orthogonalEdgeStyle;html=1;verticalAlign=bottom;endArrow=open;endSize=8;strokeColor=#ff0000;rounded=0;exitX=1;exitY=0.5;exitDx=0;exitDy=0;" edge="1" parent="1">
          <mxGeometry relative="1" as="geometry">
            <mxPoint x="995" y="1259.43" as="targetPoint" />
            <mxPoint x="875" y="1260.07" as="sourcePoint" />
            <Array as="points" />
          </mxGeometry>
        </mxCell>
        <mxCell id="A5GMixs7dAgOlRuMCkrk-54" value="" style="edgeStyle=orthogonalEdgeStyle;html=1;verticalAlign=bottom;endArrow=open;endSize=8;strokeColor=#ff0000;rounded=0;exitX=1;exitY=0.5;exitDx=0;exitDy=0;" edge="1" parent="1">
          <mxGeometry relative="1" as="geometry">
            <mxPoint x="1200" y="1259.44" as="targetPoint" />
            <mxPoint x="1100" y="1259.44" as="sourcePoint" />
            <Array as="points">
              <mxPoint x="1190" y="1259.44" />
            </Array>
          </mxGeometry>
        </mxCell>
        <mxCell id="A5GMixs7dAgOlRuMCkrk-55" value="selesai" style="edgeLabel;html=1;align=center;verticalAlign=middle;resizable=0;points=[];" connectable="0" vertex="1" parent="A5GMixs7dAgOlRuMCkrk-54">
          <mxGeometry x="-0.3289" y="4" relative="1" as="geometry">
            <mxPoint x="17" y="5" as="offset" />
          </mxGeometry>
        </mxCell>
        <mxCell id="A5GMixs7dAgOlRuMCkrk-57" value="" style="ellipse;html=1;shape=endState;fillColor=#000000;strokeColor=#ff0000;" vertex="1" parent="1">
          <mxGeometry x="1196" y="1245" width="34" height="30" as="geometry" />
        </mxCell>
      </root>
    </mxGraphModel>
  </diagram>
</mxfile>
